<?xml version="1.0" encoding="UTF-8"?>
<svg id="Calque_1" data-name="Calque 1" xmlns="http://www.w3.org/2000/svg" viewBox="0 0 102.64 98.59">
  <defs>
    <style>
      .cls-1 {
        stroke: #fff;
        stroke-width: 7px;
      }

      .cls-1, .cls-2 {
        fill: none;
        stroke-miterlimit: 10;
      }

      .cls-2 {
        stroke: #1d1d1b;
        fill:currentColor
      }
    </style>
  </defs>
  <path class="cls-2" d="M98.16,45.39l-18.15,13.34c-2.44,1.8-3.45,4.96-2.5,7.84l7.08,21.38c2.13,6.44-5.22,11.84-10.73,7.89l-18.29-13.14c-2.46-1.77-5.79-1.75-8.23.05l-18.15,13.34c-5.47,4.02-12.88-1.31-10.82-7.77l6.84-21.46c.92-2.89-.12-6.04-2.59-7.81l-18.29-13.14c-5.51-3.96-2.74-12.65,4.05-12.69l22.52-.12c3.03-.02,5.71-1.98,6.63-4.87l6.84-21.46c2.06-6.46,11.19-6.51,13.32-.07l7.08,21.38c.95,2.88,3.65,4.82,6.69,4.8l22.52-.12c6.78-.04,9.65,8.63,4.19,12.64Z"/>
  <path class="cls-1" d="M97.45,42.35l-21.99,16.25c-1.44,1.07-2.04,2.94-1.47,4.64l8.66,25.94c1.27,3.81-3.07,7.01-6.34,4.68l-22.25-15.9c-1.46-1.04-3.43-1.03-4.87.04l-21.99,16.25c-3.23,2.38-7.62-.75-6.41-4.58l8.24-26.07c.54-1.71-.08-3.58-1.54-4.62l-22.25-15.9c-3.27-2.33-1.64-7.48,2.37-7.51l27.34-.22c1.79-.01,3.38-1.18,3.92-2.89l8.24-26.07c1.21-3.83,6.61-3.87,7.88-.06l8.66,25.94c.57,1.7,2.17,2.85,3.96,2.83l27.34-.22c4.01-.03,5.72,5.09,2.49,7.47Z"/>
</svg>